<svg width="30" height="18" viewBox="0 0 30 18" fill="none" xmlns="http://www.w3.org/2000/svg">
<path fill-rule="evenodd" clip-rule="evenodd" d="M9.39634 16.7084C9.28313 16.8219 9.14864 16.9119 9.00057 16.9733C8.85251 17.0348 8.69377 17.0664 8.53347 17.0664C8.37316 17.0664 8.21443 17.0348 8.06636 16.9733C7.91829 16.9119 7.7838 16.8219 7.67059 16.7084L0.358091 9.39585C0.244594 9.28264 0.154546 9.14815 0.0931053 9.00008C0.0316648 8.85202 3.8147e-05 8.69328 3.8147e-05 8.53298C3.8147e-05 8.37267 0.0316648 8.21394 0.0931053 8.06587C0.154546 7.9178 0.244594 7.78331 0.358091 7.6701L7.67059 0.357601C7.89944 0.128752 8.20983 0.00018692 8.53347 0.00018692C8.85711 0.00018692 9.16749 0.128752 9.39634 0.357601C9.62519 0.586451 9.75376 0.896835 9.75376 1.22048C9.75376 1.54412 9.62519 1.8545 9.39634 2.08335L2.94428 8.53298L9.39634 14.9826C9.50984 15.0958 9.59989 15.2303 9.66133 15.3784C9.72277 15.5264 9.75439 15.6852 9.75439 15.8455C9.75439 16.0058 9.72277 16.1645 9.66133 16.3126C9.59989 16.4607 9.50984 16.5951 9.39634 16.7084Z" fill="#6A2C70"/>
<path fill-rule="evenodd" clip-rule="evenodd" d="M29.2522 8.5332C29.2522 8.85644 29.1238 9.16643 28.8952 9.39499C28.6667 9.62355 28.3567 9.75195 28.0334 9.75195L2.4397 9.75195C2.11646 9.75195 1.80647 9.62355 1.57791 9.39499C1.34935 9.16643 1.22095 8.85644 1.22095 8.5332C1.22095 8.20997 1.34935 7.89998 1.57791 7.67142C1.80647 7.44286 2.11646 7.31445 2.4397 7.31445L28.0334 7.31445C28.3567 7.31445 28.6667 7.44286 28.8952 7.67142C29.1238 7.89998 29.2522 8.20997 29.2522 8.5332Z" fill="#6A2C70"/>
</svg>
