<svg width="216" height="45" viewBox="0 0 216 45" fill="none" xmlns="http://www.w3.org/2000/svg">
<path d="M2.828 32.465C2.642 32.465 2.487 32.372 2.363 32.186C2.239 32 2.177 31.7623 2.177 31.473C2.177 28.931 2.07367 26.5543 1.867 24.343C1.681 22.111 1.433 19.8273 1.123 17.492C0.792333 14.9293 0.523667 12.6147 0.317 10.548C0.131 8.46067 0.0380002 6.208 0.0380002 3.79C0.0380002 3.14933 0.162 2.736 0.41 2.55C0.699334 2.364 0.937 2.271 1.123 2.271C1.39167 2.271 1.526 2.457 1.526 2.829L1.371 4.751C1.371 5.76367 1.47433 7.62367 1.681 10.331C1.90833 13.0383 2.239 16.128 2.673 19.6C3.231 24.0227 3.572 27.4327 3.696 29.83L4.936 27.04C5.90733 24.8287 6.63067 23.1237 7.106 21.925C7.58133 20.7263 8.098 19.2383 8.656 17.461C9.214 15.6837 9.896 13.2553 10.702 10.176C10.6607 9.10133 10.64 8.11967 10.64 7.231C10.64 5.495 10.7433 4.24467 10.95 3.48C11.1773 2.798 11.5183 2.457 11.973 2.457C12.2623 2.457 12.4793 2.674 12.624 3.108C12.7687 3.52133 12.841 4.07933 12.841 4.782C12.841 6.29067 12.6033 8.099 12.128 10.207C12.1487 10.7237 12.159 11.6847 12.159 13.09C12.1797 17.0167 12.2933 20.4163 12.5 23.289C12.7273 26.1617 13.2337 28.466 14.019 30.202C16.5403 25.304 18.4417 20.9123 19.723 17.027C21.0043 13.1417 21.645 9.44233 21.645 5.929C21.645 4.77167 21.459 3.728 21.087 2.798C20.715 1.868 20.1983 1.403 19.537 1.403C19.0203 1.403 18.4933 1.589 17.956 1.961L17.491 3.387C17.2637 3.80033 16.964 4.007 16.592 4.007C16.282 4.007 16.127 3.83133 16.127 3.48C16.127 3.25267 16.22 2.81866 16.406 2.178C16.8193 0.751999 17.9147 0.0389994 19.692 0.0389994C20.3327 0.0389994 20.9113 0.317999 21.428 0.875998C21.9653 1.41333 22.3787 2.085 22.668 2.891C22.978 3.67633 23.133 4.38933 23.133 5.03C23.133 13.0693 20.56 21.615 15.414 30.667C14.732 31.7623 14.1637 32.31 13.709 32.31C13.2543 32.31 12.7273 31.256 12.128 29.148C11.2187 25.8413 10.764 21.1707 10.764 15.136C10.082 17.492 9.25533 20.0133 8.284 22.7C7.31267 25.3867 6.331 27.691 5.339 29.613C4.347 31.5143 3.51 32.465 2.828 32.465ZM26.9765 32.279C25.9018 32.279 25.0958 31.8553 24.5585 31.008C24.0418 30.1607 23.7835 29.148 23.7835 27.97C23.7835 26.0893 24.0935 24.2707 24.7135 22.514C25.3542 20.7367 26.2222 19.2693 27.3175 18.112C28.3715 16.934 29.5598 16.345 30.8825 16.345C32.7838 16.345 33.7345 17.7917 33.7345 20.685C33.7345 22.1317 33.4968 23.6093 33.0215 25.118C32.5462 26.6267 31.9262 27.97 31.1615 29.148C30.4175 30.326 29.6425 31.1733 28.8365 31.69C28.2165 32.0827 27.5965 32.279 26.9765 32.279ZM27.2245 30.884C27.8652 30.884 28.5782 30.326 29.3635 29.21C30.1695 28.094 30.8412 26.7093 31.3785 25.056C31.9365 23.4027 32.2155 21.9973 32.2155 20.84C32.2155 19.6413 32.1432 18.8973 31.9985 18.608C31.8745 18.298 31.7195 18.081 31.5335 17.957C31.3475 17.833 31.0582 17.771 30.6655 17.771C30.2315 17.771 29.7768 17.9363 29.3015 18.267C28.3508 18.8663 27.5242 19.8997 26.8215 21.367C25.7262 23.5577 25.1785 25.6863 25.1785 27.753C25.1785 29.1583 25.5815 30.1297 26.3875 30.667C26.6768 30.8117 26.9558 30.884 27.2245 30.884ZM36.3342 32.496C36.0448 32.496 35.9002 32.31 35.9002 31.938L36.6132 28.249L37.9152 21.708C38.4938 18.8147 38.7832 17.368 38.7832 17.368C38.8658 16.9133 38.9795 16.5827 39.1242 16.376C39.2688 16.1693 39.4548 16.066 39.6822 16.066C39.8888 16.066 40.0438 16.1177 40.1472 16.221C40.2712 16.3243 40.3332 16.5103 40.3332 16.779C40.3332 17.2543 40.1885 17.9777 39.8992 18.949C39.7545 19.4243 39.6512 19.8273 39.5892 20.158C39.5065 20.4473 39.4135 20.778 39.3102 21.15C39.2068 21.5013 39.0932 21.9147 38.9692 22.39C39.5272 21.1293 40.0542 20.127 40.5502 19.383C41.0462 18.6183 41.6662 17.895 42.4102 17.213C43.1128 16.6137 43.8155 16.314 44.5182 16.314C45.0348 16.314 45.4688 16.4277 45.8202 16.655C46.1715 16.8617 46.3472 17.1097 46.3472 17.399C46.3472 17.6263 46.2645 17.8123 46.0992 17.957C45.9338 18.081 45.7272 18.143 45.4792 18.143C45.2932 18.143 45.1175 18.1017 44.9522 18.019C44.8282 17.9157 44.6628 17.864 44.4562 17.864C44.1875 17.864 43.7948 18.05 43.2782 18.422C42.3068 19.1247 41.4802 20.0547 40.7982 21.212C40.1368 22.3487 39.6098 23.506 39.2172 24.684C38.8452 25.8413 38.4422 27.2467 38.0082 28.9L37.7292 30.047C37.4192 31.6797 36.9542 32.496 36.3342 32.496ZM47.5397 32.372C47.2917 32.372 47.085 32.3203 46.9197 32.217C46.7544 32.1343 46.6717 32.0413 46.6717 31.938C46.6717 31.2147 47.147 28.9207 48.0977 25.056L48.4697 23.444C49.5444 18.918 50.34 15.4667 50.8567 13.09C51.394 10.7133 51.8384 8.502 52.1897 6.456L52.3447 5.557C52.5307 4.317 52.6857 3.43867 52.8097 2.922C52.9544 2.38467 53.13 2.116 53.3367 2.116C53.998 2.116 54.3287 2.457 54.3287 3.139C54.3287 3.34566 54.215 4.038 53.9877 5.216C53.8844 5.712 53.6467 6.83833 53.2747 8.595C53.0267 9.91767 52.696 11.4573 52.2827 13.214L51.3527 17.523C52.1794 16.6343 53.0164 16.19 53.8637 16.19C54.6284 16.19 55.176 16.4587 55.5067 16.996C55.858 17.5127 56.0337 18.143 56.0337 18.887C56.0337 20.0443 55.6204 21.088 54.7937 22.018C53.9877 22.9273 52.6754 23.9297 50.8567 25.025C51.0427 26.0377 51.4044 26.9987 51.9417 27.908C52.479 28.7967 53.1094 29.5097 53.8327 30.047C54.556 30.5843 55.269 30.853 55.9717 30.853C56.4264 30.853 56.7364 30.729 56.9017 30.481C57.0877 30.2123 57.253 29.8507 57.3977 29.396C57.5217 29.1067 57.687 28.962 57.8937 28.962C58.431 28.962 58.6997 29.303 58.6997 29.985C58.6997 30.3983 58.524 30.791 58.1727 31.163C57.4907 31.9277 56.7984 32.31 56.0957 32.31C54.9797 32.31 53.9567 31.9587 53.0267 31.256C52.1174 30.5327 51.3527 29.5923 50.7327 28.435C50.2987 27.6497 49.9887 26.7197 49.8027 25.645L49.5857 25.8C49.5237 26.42 49.2964 27.4327 48.9037 28.838L48.2527 31.597C48.17 32.1137 47.9324 32.372 47.5397 32.372ZM49.7407 24.374C49.844 24.2707 50.03 24.1467 50.2987 24.002C51.6627 23.1547 52.7374 22.2867 53.5227 21.398C54.1427 20.6747 54.4527 19.8687 54.4527 18.98C54.4527 18.0707 54.1427 17.616 53.5227 17.616C52.7167 17.616 52.0347 17.9777 51.4767 18.701C50.9187 19.4037 50.5054 20.4577 50.2367 21.863C50.2367 21.9457 50.216 22.049 50.1747 22.173C50.154 22.2763 50.1334 22.4003 50.1127 22.545C50.1334 22.4417 50.0094 23.0513 49.7407 24.374ZM65.0096 32.465C64.8236 32.465 64.6686 32.372 64.5446 32.186C64.4206 32 64.3586 31.7623 64.3586 31.473C64.3586 28.931 64.2553 26.5543 64.0486 24.343C63.8626 22.111 63.6146 19.8273 63.3046 17.492C62.974 14.9293 62.7053 12.6147 62.4986 10.548C62.3126 8.46067 62.2196 6.208 62.2196 3.79C62.2196 3.14933 62.3436 2.736 62.5916 2.55C62.881 2.364 63.1186 2.271 63.3046 2.271C63.5733 2.271 63.7076 2.457 63.7076 2.829L63.5526 4.751C63.5526 5.76367 63.656 7.62367 63.8626 10.331C64.09 13.0383 64.4206 16.128 64.8546 19.6C65.4126 24.0227 65.7536 27.4327 65.8776 29.83L67.1176 27.04C68.089 24.8287 68.8123 23.1237 69.2876 21.925C69.763 20.7263 70.2796 19.2383 70.8376 17.461C71.3956 15.6837 72.0776 13.2553 72.8836 10.176C72.8423 9.10133 72.8216 8.11967 72.8216 7.231C72.8216 5.495 72.925 4.24467 73.1316 3.48C73.359 2.798 73.7 2.457 74.1546 2.457C74.444 2.457 74.661 2.674 74.8056 3.108C74.9503 3.52133 75.0226 4.07933 75.0226 4.782C75.0226 6.29067 74.785 8.099 74.3096 10.207C74.3303 10.7237 74.3406 11.6847 74.3406 13.09C74.3613 17.0167 74.475 20.4163 74.6816 23.289C74.909 26.1617 75.4153 28.466 76.2006 30.202C78.722 25.304 80.6233 20.9123 81.9046 17.027C83.186 13.1417 83.8266 9.44233 83.8266 5.929C83.8266 4.77167 83.6406 3.728 83.2686 2.798C82.8966 1.868 82.38 1.403 81.7186 1.403C81.202 1.403 80.675 1.589 80.1376 1.961L79.6726 3.387C79.4453 3.80033 79.1456 4.007 78.7736 4.007C78.4636 4.007 78.3086 3.83133 78.3086 3.48C78.3086 3.25267 78.4016 2.81866 78.5876 2.178C79.001 0.751999 80.0963 0.0389994 81.8736 0.0389994C82.5143 0.0389994 83.093 0.317999 83.6096 0.875998C84.147 1.41333 84.5603 2.085 84.8496 2.891C85.1596 3.67633 85.3146 4.38933 85.3146 5.03C85.3146 13.0693 82.7416 21.615 77.5956 30.667C76.9136 31.7623 76.3453 32.31 75.8906 32.31C75.436 32.31 74.909 31.256 74.3096 29.148C73.4003 25.8413 72.9456 21.1707 72.9456 15.136C72.2636 17.492 71.437 20.0133 70.4656 22.7C69.4943 25.3867 68.5126 27.691 67.5206 29.613C66.5286 31.5143 65.6916 32.465 65.0096 32.465ZM87.0502 32.31C86.3475 32.31 85.9962 31.7417 85.9962 30.605C85.9962 30.3157 86.0478 30.0573 86.1512 29.83C86.2545 29.4787 86.3475 29.0757 86.4302 28.621L86.8952 26.544L87.5152 23.816C87.7218 22.8033 87.9698 21.6667 88.2592 20.406C88.3005 20.282 88.3418 20.0753 88.3832 19.786C88.5898 18.8973 88.6932 18.3807 88.6932 18.236V17.926C88.6932 17.7607 88.6208 17.4197 88.4762 16.903C88.4762 16.655 88.5588 16.4277 88.7242 16.221C88.9102 16.0143 89.1272 15.911 89.3752 15.911C89.6025 15.911 89.7988 16.066 89.9642 16.376C90.1295 16.686 90.2122 17.027 90.2122 17.399C90.2122 17.8123 89.7368 20.0443 88.7862 24.095C87.8355 28.1457 87.3602 30.295 87.3602 30.543C87.3602 30.7703 87.4635 30.884 87.6702 30.884C87.7735 30.884 87.9595 30.7497 88.2282 30.481C88.4762 30.233 88.6828 30.109 88.8482 30.109C89.1788 30.109 89.3442 30.3157 89.3442 30.729C89.3442 30.977 89.1995 31.225 88.9102 31.473C88.6208 31.721 88.2902 31.9173 87.9182 32.062C87.5462 32.2273 87.2568 32.31 87.0502 32.31ZM90.1812 13.586C89.8505 13.586 89.6025 13.5447 89.4372 13.462H89.3132C88.7138 13.462 88.4142 13.1107 88.4142 12.408C88.4142 12.0567 88.5588 11.7363 88.8482 11.447C89.1582 11.1577 89.4888 11.013 89.8402 11.013C90.1915 11.013 90.5222 11.137 90.8322 11.385C91.1835 11.7363 91.3592 12.0773 91.3592 12.408C91.3592 12.718 91.2352 12.997 90.9872 13.245C90.7598 13.4723 90.4912 13.586 90.1812 13.586ZM95.664 32.124C94.9407 32.124 94.393 31.938 94.021 31.566C93.6697 31.194 93.494 30.5223 93.494 29.551C93.494 29.0137 93.556 28.3937 93.68 27.691L93.959 25.924L94.3 24.467L94.486 23.63L94.889 21.925C94.9304 21.6563 95.0234 21.2223 95.168 20.623L95.323 20.003L95.602 18.67L95.788 17.74C94.982 17.74 94.238 17.7917 93.556 17.895C93.1427 17.833 92.936 17.6573 92.936 17.368C92.936 17.1613 93.0187 16.965 93.184 16.779C93.3494 16.593 93.5457 16.4897 93.773 16.469L96.005 16.531C96.005 16.531 96.0567 16.2727 96.16 15.756C96.2014 15.3427 96.284 14.8673 96.408 14.33C96.532 13.7927 96.687 13.3173 96.873 12.904C97.059 12.4493 97.3277 12.222 97.679 12.222C98.0097 12.222 98.175 12.408 98.175 12.78V12.966C98.0924 13.3793 98.02 13.679 97.958 13.865L97.431 16.5H99.663C100.448 16.5 100.934 16.562 101.12 16.686C101.285 16.81 101.368 16.965 101.368 17.151C101.368 17.4817 101.213 17.6987 100.903 17.802C100.614 17.8847 100.107 17.926 99.384 17.926C98.7227 17.926 97.989 17.895 97.183 17.833C97.059 18.515 96.6354 20.406 95.912 23.506C95.2507 26.3167 94.92 28.094 94.92 28.838C94.92 29.644 95.013 30.171 95.199 30.419C95.3024 30.5843 95.5194 30.667 95.85 30.667C96.1394 30.667 96.3874 30.5947 96.594 30.45C96.8214 30.2847 97.0487 30.0677 97.276 29.799C97.5034 29.5097 97.6997 29.2927 97.865 29.148C98.0304 29.0033 98.206 28.931 98.392 28.931C98.8054 28.931 99.012 29.1377 99.012 29.551C99.012 29.7577 98.8054 30.0987 98.392 30.574C97.9787 31.0493 97.586 31.4317 97.214 31.721C96.8834 31.9897 96.3667 32.124 95.664 32.124ZM103.241 32.248C102.889 32.248 102.714 32.0723 102.714 31.721C102.714 31.4317 103.726 26.6267 105.752 17.306C106.33 14.516 106.899 11.695 107.457 8.843C108.035 5.97033 108.459 3.87267 108.728 2.55C108.831 2.24 109.007 2.085 109.255 2.085C109.792 2.085 110.123 2.34333 110.247 2.86C109.957 4.348 109.492 6.642 108.852 9.742C108.211 12.8213 107.663 15.4357 107.209 17.585L106.031 23.01C108.139 18.67 110.133 16.5 112.014 16.5C112.737 16.5 113.295 16.7893 113.688 17.368C114.08 17.926 114.277 18.5977 114.277 19.383C114.277 20.1477 114.142 21.1603 113.874 22.421L113.378 25.025C112.799 28.0217 112.51 29.7267 112.51 30.14L112.572 31.349C112.572 31.6177 112.479 31.8347 112.293 32C112.127 32.1447 111.9 32.217 111.611 32.217C111.342 32.217 111.135 32.1343 110.991 31.969C110.846 31.783 110.774 31.535 110.774 31.225C110.774 31.039 110.784 30.8943 110.805 30.791L112.603 20.716C112.665 20.406 112.696 20.034 112.696 19.6C112.696 18.5667 112.406 18.05 111.828 18.05C111.166 18.05 110.381 18.6287 109.472 19.786C108.562 20.9227 107.705 22.2143 106.899 23.661C106.113 25.1077 105.617 26.141 105.411 26.761C105.163 27.505 104.925 28.342 104.698 29.272C104.47 30.1813 104.357 30.76 104.357 31.008C104.377 31.5247 104.326 31.8553 104.202 32C104.078 32.1653 103.757 32.248 103.241 32.248ZM141.178 32.372C140.909 32.372 140.733 32.2583 140.651 32.031C140.568 31.8037 140.527 31.38 140.527 30.76V29.427C140.527 27.753 140.671 23.2167 140.961 15.818C141.002 14.144 141.054 12.501 141.116 10.889C141.178 9.277 141.219 7.95433 141.24 6.921C140.351 8.905 138.987 11.664 137.148 15.198C135.329 18.732 134.223 20.871 133.831 21.615C132.921 23.3303 132.002 25.0973 131.072 26.916C130.865 27.35 130.607 27.567 130.297 27.567C130.007 27.567 129.801 27.4223 129.677 27.133L128.561 21.987C126.68 13.5757 125.523 8.30567 125.089 6.177C124.613 8.57433 124.117 10.8683 123.601 13.059C123.105 15.229 122.464 17.926 121.679 21.15C121.389 22.3693 121.038 23.847 120.625 25.583C120.211 27.319 119.736 29.365 119.199 31.721C118.971 32.1343 118.682 32.341 118.331 32.341C118.021 32.341 117.845 32.1343 117.804 31.721C118.155 29.7783 118.651 27.381 119.292 24.529C119.932 21.677 120.573 18.9077 121.214 16.221C121.854 13.5137 122.278 11.7053 122.485 10.796L124.376 2.767C124.438 2.56033 124.551 2.38466 124.717 2.24C124.903 2.09533 125.078 2.023 125.244 2.023C125.512 2.023 125.698 2.19866 125.802 2.55C126.153 4.07933 127 7.93367 128.344 14.113C129.15 18.143 129.883 21.5323 130.545 24.281C131.516 22.6277 132.715 20.4163 134.141 17.647C135.567 14.8777 137.489 11.106 139.907 6.332C140.527 5.05067 141.126 3.852 141.705 2.736C141.953 2.24 142.252 1.992 142.604 1.992C142.934 1.992 143.1 2.147 143.1 2.457L143.038 3.294C142.459 13.1313 142.128 22.3177 142.046 30.853C142.108 30.9357 142.139 31.0493 142.139 31.194C142.139 31.4627 142.035 31.7313 141.829 32C141.643 32.248 141.426 32.372 141.178 32.372ZM157.435 32.062C156.959 32.062 156.515 31.814 156.102 31.318C155.709 30.8013 155.513 30.2537 155.513 29.675C155.513 28.3937 155.854 26.2237 156.536 23.165C156.019 24.281 155.347 25.428 154.521 26.606C153.715 27.7633 152.919 28.7863 152.134 29.675C151.348 30.5637 150.77 31.1423 150.398 31.411C149.881 31.8037 149.313 32 148.693 32C147.515 32 146.926 31.256 146.926 29.768C146.926 28.3213 147.473 26.5233 148.569 24.374C149.664 22.204 150.966 20.3233 152.475 18.732C153.983 17.1613 155.203 16.376 156.133 16.376C157.083 16.376 157.621 16.7893 157.745 17.616C157.807 17.864 157.838 18.1327 157.838 18.422C157.941 18.36 158.055 18.329 158.179 18.329C158.654 18.329 158.892 18.5563 158.892 19.011V19.135L158.52 20.499C158.23 21.5323 157.931 23.0617 157.621 25.087C157.311 27.1123 157.156 28.7967 157.156 30.14L157.466 30.326C157.962 30.636 158.21 30.946 158.21 31.256C158.21 31.4627 158.137 31.6487 157.993 31.814C157.848 31.9793 157.662 32.062 157.435 32.062ZM148.941 30.388C149.168 30.388 149.354 30.3157 149.499 30.171C151.607 28.373 153.477 25.8827 155.11 22.7C155.812 21.3773 156.246 20.5093 156.412 20.096C156.598 19.6827 156.691 19.2797 156.691 18.887C156.691 18.6803 156.639 18.4943 156.536 18.329C156.432 18.1637 156.298 18.081 156.133 18.081C155.926 18.081 155.657 18.174 155.327 18.36C154.5 18.794 153.518 19.7137 152.382 21.119C151.266 22.5243 150.346 24.0123 149.623 25.583C148.858 27.1743 148.476 28.59 148.476 29.83C148.476 30.202 148.631 30.388 148.941 30.388ZM162.711 44.927C162.05 44.927 161.461 44.7513 160.944 44.4C160.448 44.0487 160.066 43.6043 159.797 43.067C159.529 42.5503 159.394 42.0337 159.394 41.517C159.394 40.2563 159.735 39.13 160.417 38.138C160.913 37.4147 161.74 36.6397 162.897 35.813C163.951 35.0277 164.571 34.5937 164.757 34.511L167.454 32.527C167.516 32.2377 167.899 30.9563 168.601 28.683L169.004 27.412C169.149 26.8953 169.294 26.42 169.438 25.986C169.583 25.552 169.686 25.1903 169.748 24.901C168.86 27.4843 167.795 29.458 166.555 30.822C165.729 31.7727 164.923 32.248 164.137 32.248C163.352 32.248 162.711 31.938 162.215 31.318C161.74 30.6773 161.502 29.8093 161.502 28.714C161.502 26.978 161.998 24.2397 162.99 20.499C163.486 18.639 163.734 17.6367 163.734 17.492C163.714 17.4093 163.703 17.3163 163.703 17.213C163.703 17.0683 163.734 16.9547 163.796 16.872C164.086 16.4793 164.427 16.283 164.819 16.283C165.212 16.283 165.408 16.4897 165.408 16.903C165.408 17.3163 165.026 19.0523 164.261 22.111C163.497 25.1697 163.114 27.2467 163.114 28.342C163.114 29.4167 163.249 30.0883 163.517 30.357C163.765 30.6257 164.075 30.76 164.447 30.76C165.233 30.76 166.07 30.0987 166.958 28.776C167.661 27.7427 168.281 26.358 168.818 24.622C169.376 22.8653 169.893 21.0157 170.368 19.073L170.523 18.453C170.751 17.523 170.947 16.9443 171.112 16.717C171.278 16.469 171.526 16.345 171.856 16.345C172.187 16.345 172.352 16.469 172.352 16.717C172.352 17.0063 171.908 19.1143 171.019 23.041C170.151 26.699 169.531 29.427 169.159 31.225C169.573 30.8737 169.934 30.543 170.244 30.233C170.658 29.8197 170.957 29.5303 171.143 29.365C171.35 29.1997 171.536 29.117 171.701 29.117C172.094 29.117 172.29 29.2927 172.29 29.644C172.29 29.83 172.208 30.0367 172.042 30.264C170.926 31.256 169.852 32.1447 168.818 32.93C168.322 35.658 167.857 37.8177 167.423 39.409C166.989 41.021 166.39 42.3437 165.625 43.377C164.881 44.4103 163.91 44.927 162.711 44.927ZM162.742 43.439C164.003 43.439 165.078 41.982 165.966 39.068L166.679 36.34L167.082 34.325C166.276 34.945 165.491 35.5133 164.726 36.03C163.962 36.5467 163.331 37.0117 162.835 37.425C162.36 37.8383 161.926 38.3653 161.533 39.006C161.161 39.6467 160.975 40.3803 160.975 41.207C160.975 42.0543 161.254 42.7053 161.812 43.16C162.019 43.346 162.329 43.439 162.742 43.439ZM177.496 32.279C176.421 32.279 175.615 31.8553 175.078 31.008C174.561 30.1607 174.303 29.148 174.303 27.97C174.303 26.0893 174.613 24.2707 175.233 22.514C175.874 20.7367 176.742 19.2693 177.837 18.112C178.891 16.934 180.079 16.345 181.402 16.345C183.303 16.345 184.254 17.7917 184.254 20.685C184.254 22.1317 184.016 23.6093 183.541 25.118C183.066 26.6267 182.446 27.97 181.681 29.148C180.937 30.326 180.162 31.1733 179.356 31.69C178.736 32.0827 178.116 32.279 177.496 32.279ZM177.744 30.884C178.385 30.884 179.098 30.326 179.883 29.21C180.689 28.094 181.361 26.7093 181.898 25.056C182.456 23.4027 182.735 21.9973 182.735 20.84C182.735 19.6413 182.663 18.8973 182.518 18.608C182.394 18.298 182.239 18.081 182.053 17.957C181.867 17.833 181.578 17.771 181.185 17.771C180.751 17.771 180.296 17.9363 179.821 18.267C178.87 18.8663 178.044 19.8997 177.341 21.367C176.246 23.5577 175.698 25.6863 175.698 27.753C175.698 29.1583 176.101 30.1297 176.907 30.667C177.196 30.8117 177.475 30.884 177.744 30.884ZM196.278 32.217C195.802 32.217 195.565 31.8037 195.565 30.977V30.233C195.565 29.9643 195.554 29.7783 195.534 29.675C194.831 25.893 194.366 23.041 194.139 21.119C193.746 21.987 193.188 23.413 192.465 25.397C191.369 28.3937 190.532 30.4913 189.954 31.69C189.747 31.9587 189.509 32.093 189.241 32.093C188.807 32.093 188.59 31.6693 188.59 30.822C188.259 29.4167 187.887 27.1433 187.474 24.002C187.267 22.452 187.06 21.026 186.854 19.724C186.647 18.4013 186.513 17.5747 186.451 17.244C186.451 17.0993 186.533 16.934 186.699 16.748C186.864 16.562 187.04 16.469 187.226 16.469C187.66 16.469 187.949 16.7997 188.094 17.461C188.135 17.647 188.228 18.4117 188.373 19.755C188.662 22.2763 188.92 24.3637 189.148 26.017C189.396 27.6497 189.623 28.6107 189.83 28.9L190.791 26.296C192.547 21.6873 193.591 18.5667 193.922 16.934C194.004 16.5413 194.242 16.345 194.635 16.345C194.862 16.345 195.017 16.407 195.1 16.531C195.203 16.6343 195.275 16.81 195.317 17.058C195.792 21.9147 196.35 26.017 196.991 29.365C198.334 27.5257 199.419 25.8103 200.246 24.219C201.072 22.607 201.486 21.1913 201.486 19.972C201.486 19.0833 201.258 18.36 200.804 17.802C200.742 17.7193 200.525 17.5643 200.153 17.337C199.533 17.0477 199.223 16.7687 199.223 16.5C199.223 16.314 199.305 16.1383 199.471 15.973C199.657 15.8077 199.863 15.7147 200.091 15.694C200.938 15.7147 201.61 16.1383 202.106 16.965C202.602 17.771 202.85 18.8043 202.85 20.065C202.85 22.731 201.403 25.8827 198.51 29.52C198.324 29.83 198.21 30.0263 198.169 30.109C197.817 30.7497 197.497 31.2663 197.208 31.659C196.918 32.031 196.608 32.217 196.278 32.217ZM214.016 32.062C213.54 32.062 213.096 31.814 212.683 31.318C212.29 30.8013 212.094 30.2537 212.094 29.675C212.094 28.3937 212.435 26.2237 213.117 23.165C212.6 24.281 211.928 25.428 211.102 26.606C210.296 27.7633 209.5 28.7863 208.715 29.675C207.929 30.5637 207.351 31.1423 206.979 31.411C206.462 31.8037 205.894 32 205.274 32C204.096 32 203.507 31.256 203.507 29.768C203.507 28.3213 204.054 26.5233 205.15 24.374C206.245 22.204 207.547 20.3233 209.056 18.732C210.564 17.1613 211.784 16.376 212.714 16.376C213.664 16.376 214.202 16.7893 214.326 17.616C214.388 17.864 214.419 18.1327 214.419 18.422C214.522 18.36 214.636 18.329 214.76 18.329C215.235 18.329 215.473 18.5563 215.473 19.011V19.135L215.101 20.499C214.811 21.5323 214.512 23.0617 214.202 25.087C213.892 27.1123 213.737 28.7967 213.737 30.14L214.047 30.326C214.543 30.636 214.791 30.946 214.791 31.256C214.791 31.4627 214.718 31.6487 214.574 31.814C214.429 31.9793 214.243 32.062 214.016 32.062ZM205.522 30.388C205.749 30.388 205.935 30.3157 206.08 30.171C208.188 28.373 210.058 25.8827 211.691 22.7C212.393 21.3773 212.827 20.5093 212.993 20.096C213.179 19.6827 213.272 19.2797 213.272 18.887C213.272 18.6803 213.22 18.4943 213.117 18.329C213.013 18.1637 212.879 18.081 212.714 18.081C212.507 18.081 212.238 18.174 211.908 18.36C211.081 18.794 210.099 19.7137 208.963 21.119C207.847 22.5243 206.927 24.0123 206.204 25.583C205.439 27.1743 205.057 28.59 205.057 29.83C205.057 30.202 205.212 30.388 205.522 30.388Z" fill="#6A2C70"/>
</svg>
