<svg width="182" height="38" viewBox="0 0 182 38" fill="none" xmlns="http://www.w3.org/2000/svg">
<path d="M2.888 27.39C2.732 27.39 2.602 27.312 2.498 27.156C2.394 27 2.342 26.8007 2.342 26.558C2.342 24.426 2.25533 22.4327 2.082 20.578C1.926 18.706 1.718 16.7907 1.458 14.832C1.18067 12.6827 0.955334 10.7413 0.782 9.008C0.626 7.25733 0.548 5.368 0.548 3.34C0.548 2.80267 0.652 2.456 0.86 2.3C1.10267 2.144 1.302 2.066 1.458 2.066C1.68333 2.066 1.796 2.222 1.796 2.534L1.666 4.146C1.666 4.99533 1.75267 6.55533 1.926 8.826C2.11667 11.0967 2.394 13.688 2.758 16.6C3.226 20.3093 3.512 23.1693 3.616 25.18L4.656 22.84C5.47067 20.9853 6.07733 19.5553 6.476 18.55C6.87467 17.5447 7.308 16.2967 7.776 14.806C8.244 13.3153 8.816 11.2787 9.492 8.696C9.45733 7.79467 9.44 6.97133 9.44 6.226C9.44 4.77 9.52667 3.72133 9.7 3.08C9.89067 2.508 10.1767 2.222 10.558 2.222C10.8007 2.222 10.9827 2.404 11.104 2.768C11.2253 3.11467 11.286 3.58267 11.286 4.172C11.286 5.43733 11.0867 6.954 10.688 8.722C10.7053 9.15533 10.714 9.96133 10.714 11.14C10.7313 14.4333 10.8267 17.2847 11 19.694C11.1907 22.1033 11.6153 24.036 12.274 25.492C14.3887 21.384 15.9833 17.7007 17.058 14.442C18.1327 11.1833 18.67 8.08067 18.67 5.134C18.67 4.16333 18.514 3.288 18.202 2.508C17.89 1.728 17.4567 1.338 16.902 1.338C16.4687 1.338 16.0267 1.494 15.576 1.806L15.186 3.002C14.9953 3.34867 14.744 3.522 14.432 3.522C14.172 3.522 14.042 3.37467 14.042 3.08C14.042 2.88933 14.12 2.52533 14.276 1.988C14.6227 0.791999 15.5413 0.194 17.032 0.194C17.5693 0.194 18.0547 0.427999 18.488 0.895998C18.9387 1.34667 19.2853 1.91 19.528 2.586C19.788 3.24467 19.918 3.84267 19.918 4.38C19.918 11.1227 17.76 18.29 13.444 25.882C12.872 26.8007 12.3953 27.26 12.014 27.26C11.6327 27.26 11.1907 26.376 10.688 24.608C9.92533 21.8347 9.544 17.9173 9.544 12.856C8.972 14.832 8.27867 16.9467 7.464 19.2C6.64933 21.4533 5.826 23.386 4.994 24.998C4.162 26.5927 3.46 27.39 2.888 27.39ZM23.1416 27.234C22.2403 27.234 21.5643 26.8787 21.1136 26.168C20.6803 25.4573 20.4636 24.608 20.4636 23.62C20.4636 22.0427 20.7236 20.5173 21.2436 19.044C21.7809 17.5533 22.5089 16.3227 23.4276 15.352C24.3116 14.364 25.3083 13.87 26.4176 13.87C28.0123 13.87 28.8096 15.0833 28.8096 17.51C28.8096 18.7233 28.6103 19.9627 28.2116 21.228C27.8129 22.4933 27.2929 23.62 26.6516 24.608C26.0276 25.596 25.3776 26.3067 24.7016 26.74C24.1816 27.0693 23.6616 27.234 23.1416 27.234ZM23.3496 26.064C23.8869 26.064 24.4849 25.596 25.1436 24.66C25.8196 23.724 26.3829 22.5627 26.8336 21.176C27.3016 19.7893 27.5356 18.6107 27.5356 17.64C27.5356 16.6347 27.4749 16.0107 27.3536 15.768C27.2496 15.508 27.1196 15.326 26.9636 15.222C26.8076 15.118 26.5649 15.066 26.2356 15.066C25.8716 15.066 25.4903 15.2047 25.0916 15.482C24.2943 15.9847 23.6009 16.8513 23.0116 18.082C22.0929 19.9193 21.6336 21.7047 21.6336 23.438C21.6336 24.6167 21.9716 25.4313 22.6476 25.882C22.8903 26.0033 23.1243 26.064 23.3496 26.064ZM30.9899 27.416C30.7473 27.416 30.6259 27.26 30.6259 26.948L31.2239 23.854L32.3159 18.368C32.8013 15.9413 33.0439 14.728 33.0439 14.728C33.1133 14.3467 33.2086 14.0693 33.3299 13.896C33.4513 13.7227 33.6073 13.636 33.7979 13.636C33.9713 13.636 34.1013 13.6793 34.1879 13.766C34.2919 13.8527 34.3439 14.0087 34.3439 14.234C34.3439 14.6327 34.2226 15.2393 33.9799 16.054C33.8586 16.4527 33.7719 16.7907 33.7199 17.068C33.6506 17.3107 33.5726 17.588 33.4859 17.9C33.3993 18.1947 33.3039 18.5413 33.1999 18.94C33.6679 17.8827 34.1099 17.042 34.5259 16.418C34.9419 15.7767 35.4619 15.17 36.0859 14.598C36.6753 14.0953 37.2646 13.844 37.8539 13.844C38.2873 13.844 38.6513 13.9393 38.9459 14.13C39.2406 14.3033 39.3879 14.5113 39.3879 14.754C39.3879 14.9447 39.3186 15.1007 39.1799 15.222C39.0413 15.326 38.8679 15.378 38.6599 15.378C38.5039 15.378 38.3566 15.3433 38.2179 15.274C38.1139 15.1873 37.9753 15.144 37.8019 15.144C37.5766 15.144 37.2473 15.3 36.8139 15.612C35.9993 16.2013 35.3059 16.9813 34.7339 17.952C34.1793 18.9053 33.7373 19.876 33.4079 20.864C33.0959 21.8347 32.7579 23.0133 32.3939 24.4L32.1599 25.362C31.8999 26.7313 31.5099 27.416 30.9899 27.416ZM40.3881 27.312C40.1801 27.312 40.0068 27.2687 39.8681 27.182C39.7295 27.1127 39.6601 27.0347 39.6601 26.948C39.6601 26.3413 40.0588 24.4173 40.8561 21.176L41.1681 19.824C42.0695 16.028 42.7368 13.1333 43.1701 11.14C43.6208 9.14667 43.9935 7.292 44.2881 5.576L44.4181 4.822C44.5741 3.782 44.7041 3.04533 44.8081 2.612C44.9295 2.16133 45.0768 1.936 45.2501 1.936C45.8048 1.936 46.0821 2.222 46.0821 2.794C46.0821 2.96733 45.9868 3.548 45.7961 4.536C45.7095 4.952 45.5101 5.89667 45.1981 7.37C44.9901 8.47933 44.7128 9.77067 44.3661 11.244L43.5861 14.858C44.2795 14.1127 44.9815 13.74 45.6921 13.74C46.3335 13.74 46.7928 13.9653 47.0701 14.416C47.3648 14.8493 47.5121 15.378 47.5121 16.002C47.5121 16.9727 47.1655 17.848 46.4721 18.628C45.7961 19.3907 44.6955 20.2313 43.1701 21.15C43.3261 21.9993 43.6295 22.8053 44.0801 23.568C44.5308 24.3133 45.0595 24.9113 45.6661 25.362C46.2728 25.8127 46.8708 26.038 47.4601 26.038C47.8415 26.038 48.1015 25.934 48.2401 25.726C48.3961 25.5007 48.5348 25.1973 48.6561 24.816C48.7601 24.5733 48.8988 24.452 49.0721 24.452C49.5228 24.452 49.7481 24.738 49.7481 25.31C49.7481 25.6567 49.6008 25.986 49.3061 26.298C48.7341 26.9393 48.1535 27.26 47.5641 27.26C46.6281 27.26 45.7701 26.9653 44.9901 26.376C44.2275 25.7693 43.5861 24.9807 43.0661 24.01C42.7021 23.3513 42.4421 22.5713 42.2861 21.67L42.1041 21.8C42.0521 22.32 41.8615 23.1693 41.5321 24.348L40.9861 26.662C40.9168 27.0953 40.7175 27.312 40.3881 27.312ZM42.2341 20.604C42.3208 20.5173 42.4768 20.4133 42.7021 20.292C43.8461 19.5813 44.7475 18.8533 45.4061 18.108C45.9261 17.5013 46.1861 16.8253 46.1861 16.08C46.1861 15.3173 45.9261 14.936 45.4061 14.936C44.7301 14.936 44.1581 15.2393 43.6901 15.846C43.2221 16.4353 42.8755 17.3193 42.6501 18.498C42.6501 18.5673 42.6328 18.654 42.5981 18.758C42.5808 18.8447 42.5635 18.9487 42.5461 19.07C42.5635 18.9833 42.4595 19.4947 42.2341 20.604ZM55.0403 27.39C54.8843 27.39 54.7543 27.312 54.6503 27.156C54.5463 27 54.4943 26.8007 54.4943 26.558C54.4943 24.426 54.4077 22.4327 54.2343 20.578C54.0783 18.706 53.8703 16.7907 53.6103 14.832C53.333 12.6827 53.1077 10.7413 52.9343 9.008C52.7783 7.25733 52.7003 5.368 52.7003 3.34C52.7003 2.80267 52.8043 2.456 53.0123 2.3C53.255 2.144 53.4543 2.066 53.6103 2.066C53.8357 2.066 53.9483 2.222 53.9483 2.534L53.8183 4.146C53.8183 4.99533 53.905 6.55533 54.0783 8.826C54.269 11.0967 54.5463 13.688 54.9103 16.6C55.3783 20.3093 55.6643 23.1693 55.7683 25.18L56.8083 22.84C57.623 20.9853 58.2297 19.5553 58.6283 18.55C59.027 17.5447 59.4603 16.2967 59.9283 14.806C60.3963 13.3153 60.9683 11.2787 61.6443 8.696C61.6097 7.79467 61.5923 6.97133 61.5923 6.226C61.5923 4.77 61.679 3.72133 61.8523 3.08C62.043 2.508 62.329 2.222 62.7103 2.222C62.953 2.222 63.135 2.404 63.2563 2.768C63.3777 3.11467 63.4383 3.58267 63.4383 4.172C63.4383 5.43733 63.239 6.954 62.8403 8.722C62.8577 9.15533 62.8663 9.96133 62.8663 11.14C62.8837 14.4333 62.979 17.2847 63.1523 19.694C63.343 22.1033 63.7677 24.036 64.4263 25.492C66.541 21.384 68.1357 17.7007 69.2103 14.442C70.285 11.1833 70.8223 8.08067 70.8223 5.134C70.8223 4.16333 70.6663 3.288 70.3543 2.508C70.0423 1.728 69.609 1.338 69.0543 1.338C68.621 1.338 68.179 1.494 67.7283 1.806L67.3383 3.002C67.1477 3.34867 66.8963 3.522 66.5843 3.522C66.3243 3.522 66.1943 3.37467 66.1943 3.08C66.1943 2.88933 66.2723 2.52533 66.4283 1.988C66.775 0.791999 67.6937 0.194 69.1843 0.194C69.7217 0.194 70.207 0.427999 70.6403 0.895998C71.091 1.34667 71.4377 1.91 71.6803 2.586C71.9403 3.24467 72.0703 3.84267 72.0703 4.38C72.0703 11.1227 69.9123 18.29 65.5963 25.882C65.0243 26.8007 64.5477 27.26 64.1663 27.26C63.785 27.26 63.343 26.376 62.8403 24.608C62.0777 21.8347 61.6963 17.9173 61.6963 12.856C61.1243 14.832 60.431 16.9467 59.6163 19.2C58.8017 21.4533 57.9783 23.386 57.1463 24.998C56.3143 26.5927 55.6123 27.39 55.0403 27.39ZM73.5259 27.26C72.9366 27.26 72.6419 26.7833 72.6419 25.83C72.6419 25.5873 72.6853 25.3707 72.7719 25.18C72.8586 24.8853 72.9366 24.5473 73.0059 24.166L73.3959 22.424L73.9159 20.136C74.0893 19.2867 74.2973 18.3333 74.5399 17.276C74.5746 17.172 74.6093 16.9987 74.6439 16.756C74.8173 16.0107 74.9039 15.5773 74.9039 15.456V15.196C74.9039 15.0573 74.8433 14.7713 74.7219 14.338C74.7219 14.13 74.7913 13.9393 74.9299 13.766C75.0859 13.5927 75.2679 13.506 75.4759 13.506C75.6666 13.506 75.8313 13.636 75.9699 13.896C76.1086 14.156 76.1779 14.442 76.1779 14.754C76.1779 15.1007 75.7793 16.9727 74.9819 20.37C74.1846 23.7673 73.7859 25.57 73.7859 25.778C73.7859 25.9687 73.8726 26.064 74.0459 26.064C74.1326 26.064 74.2886 25.9513 74.5139 25.726C74.7219 25.518 74.8953 25.414 75.0339 25.414C75.3113 25.414 75.4499 25.5873 75.4499 25.934C75.4499 26.142 75.3286 26.35 75.0859 26.558C74.8433 26.766 74.5659 26.9307 74.2539 27.052C73.9419 27.1907 73.6993 27.26 73.5259 27.26ZM76.1519 11.556C75.8746 11.556 75.6666 11.5213 75.5279 11.452H75.4239C74.9213 11.452 74.6699 11.1573 74.6699 10.568C74.6699 10.2733 74.7913 10.0047 75.0339 9.762C75.2939 9.51933 75.5713 9.398 75.8659 9.398C76.1606 9.398 76.4379 9.502 76.6979 9.71C76.9926 10.0047 77.1399 10.2907 77.1399 10.568C77.1399 10.828 77.0359 11.062 76.8279 11.27C76.6373 11.4607 76.4119 11.556 76.1519 11.556ZM80.7505 27.104C80.1438 27.104 79.6845 26.948 79.3725 26.636C79.0778 26.324 78.9305 25.7607 78.9305 24.946C78.9305 24.4953 78.9825 23.9753 79.0865 23.386L79.3205 21.904L79.6065 20.682L79.7625 19.98L80.1005 18.55C80.1352 18.3247 80.2132 17.9607 80.3345 17.458L80.4645 16.938L80.6985 15.82L80.8545 15.04C80.1785 15.04 79.5545 15.0833 78.9825 15.17C78.6358 15.118 78.4625 14.9707 78.4625 14.728C78.4625 14.5547 78.5318 14.39 78.6705 14.234C78.8092 14.078 78.9738 13.9913 79.1645 13.974L81.0365 14.026C81.0365 14.026 81.0798 13.8093 81.1665 13.376C81.2012 13.0293 81.2705 12.6307 81.3745 12.18C81.4785 11.7293 81.6085 11.3307 81.7645 10.984C81.9205 10.6027 82.1458 10.412 82.4405 10.412C82.7178 10.412 82.8565 10.568 82.8565 10.88V11.036C82.7872 11.3827 82.7265 11.634 82.6745 11.79L82.2325 14H84.1045C84.7632 14 85.1705 14.052 85.3265 14.156C85.4652 14.26 85.5345 14.39 85.5345 14.546C85.5345 14.8233 85.4045 15.0053 85.1445 15.092C84.9018 15.1613 84.4772 15.196 83.8705 15.196C83.3158 15.196 82.7005 15.17 82.0245 15.118C81.9205 15.69 81.5652 17.276 80.9585 19.876C80.4038 22.2333 80.1265 23.724 80.1265 24.348C80.1265 25.024 80.2045 25.466 80.3605 25.674C80.4472 25.8127 80.6292 25.882 80.9065 25.882C81.1492 25.882 81.3572 25.8213 81.5305 25.7C81.7212 25.5613 81.9118 25.3793 82.1025 25.154C82.2932 24.9113 82.4578 24.7293 82.5965 24.608C82.7352 24.4867 82.8825 24.426 83.0385 24.426C83.3852 24.426 83.5585 24.5993 83.5585 24.946C83.5585 25.1193 83.3852 25.4053 83.0385 25.804C82.6918 26.2027 82.3625 26.5233 82.0505 26.766C81.7732 26.9913 81.3398 27.104 80.7505 27.104ZM87.105 27.208C86.8104 27.208 86.663 27.0607 86.663 26.766C86.663 26.5233 87.5124 22.4933 89.211 14.676C89.6964 12.336 90.173 9.97 90.641 7.578C91.1264 5.16867 91.4817 3.40933 91.707 2.3C91.7937 2.04 91.941 1.91 92.149 1.91C92.5997 1.91 92.877 2.12667 92.981 2.56C92.7384 3.808 92.3484 5.732 91.811 8.332C91.2737 10.9147 90.8144 13.1073 90.433 14.91L89.445 19.46C91.213 15.82 92.8857 14 94.463 14C95.0697 14 95.5377 14.2427 95.867 14.728C96.1964 15.196 96.361 15.7593 96.361 16.418C96.361 17.0593 96.2484 17.9087 96.023 18.966L95.607 21.15C95.1217 23.6633 94.879 25.0933 94.879 25.44L94.931 26.454C94.931 26.6793 94.853 26.8613 94.697 27C94.5584 27.1213 94.3677 27.182 94.125 27.182C93.8997 27.182 93.7264 27.1127 93.605 26.974C93.4837 26.818 93.423 26.61 93.423 26.35C93.423 26.194 93.4317 26.0727 93.449 25.986L94.957 17.536C95.009 17.276 95.035 16.964 95.035 16.6C95.035 15.7333 94.7924 15.3 94.307 15.3C93.7524 15.3 93.0937 15.7853 92.331 16.756C91.5684 17.7093 90.849 18.7927 90.173 20.006C89.5144 21.2193 89.0984 22.086 88.925 22.606C88.717 23.23 88.5177 23.932 88.327 24.712C88.1364 25.4747 88.041 25.96 88.041 26.168C88.0584 26.6013 88.015 26.8787 87.911 27C87.807 27.1387 87.5384 27.208 87.105 27.208ZM118.923 27.312C118.698 27.312 118.55 27.2167 118.481 27.026C118.412 26.8353 118.377 26.48 118.377 25.96V24.842C118.377 23.438 118.498 19.6333 118.741 13.428C118.776 12.024 118.819 10.646 118.871 9.294C118.923 7.942 118.958 6.83267 118.975 5.966C118.23 7.63 117.086 9.944 115.543 12.908C114.018 15.872 113.09 17.666 112.761 18.29C111.998 19.7287 111.227 21.2107 110.447 22.736C110.274 23.1 110.057 23.282 109.797 23.282C109.554 23.282 109.381 23.1607 109.277 22.918L108.341 18.602C106.764 11.5473 105.793 7.12733 105.429 5.342C105.03 7.35267 104.614 9.27667 104.181 11.114C103.765 12.934 103.228 15.196 102.569 17.9C102.326 18.9227 102.032 20.162 101.685 21.618C101.338 23.074 100.94 24.79 100.489 26.766C100.298 27.1127 100.056 27.286 99.7612 27.286C99.5012 27.286 99.3538 27.1127 99.3192 26.766C99.6138 25.1367 100.03 23.126 100.567 20.734C101.104 18.342 101.642 16.0193 102.179 13.766C102.716 11.4953 103.072 9.97867 103.245 9.216L104.831 2.482C104.883 2.30867 104.978 2.16133 105.117 2.04C105.273 1.91867 105.42 1.858 105.559 1.858C105.784 1.858 105.94 2.00533 106.027 2.3C106.322 3.58267 107.032 6.81533 108.159 11.998C108.835 15.378 109.45 18.2207 110.005 20.526C110.82 19.1393 111.825 17.2847 113.021 14.962C114.217 12.6393 115.829 9.476 117.857 5.472C118.377 4.39733 118.88 3.392 119.365 2.456C119.573 2.04 119.824 1.832 120.119 1.832C120.396 1.832 120.535 1.962 120.535 2.222L120.483 2.924C119.998 11.1747 119.72 18.8793 119.651 26.038C119.703 26.1073 119.729 26.2027 119.729 26.324C119.729 26.5493 119.642 26.7747 119.469 27C119.313 27.208 119.131 27.312 118.923 27.312ZM132.558 27.052C132.159 27.052 131.787 26.844 131.44 26.428C131.111 25.9947 130.946 25.5353 130.946 25.05C130.946 23.9753 131.232 22.1553 131.804 19.59C131.371 20.526 130.807 21.488 130.114 22.476C129.438 23.4467 128.771 24.3047 128.112 25.05C127.453 25.7953 126.968 26.2807 126.656 26.506C126.223 26.8353 125.746 27 125.226 27C124.238 27 123.744 26.376 123.744 25.128C123.744 23.9147 124.203 22.4067 125.122 20.604C126.041 18.784 127.133 17.2067 128.398 15.872C129.663 14.5547 130.686 13.896 131.466 13.896C132.263 13.896 132.714 14.2427 132.818 14.936C132.87 15.144 132.896 15.3693 132.896 15.612C132.983 15.56 133.078 15.534 133.182 15.534C133.581 15.534 133.78 15.7247 133.78 16.106V16.21L133.468 17.354C133.225 18.2207 132.974 19.5033 132.714 21.202C132.454 22.9007 132.324 24.3133 132.324 25.44L132.584 25.596C133 25.856 133.208 26.116 133.208 26.376C133.208 26.5493 133.147 26.7053 133.026 26.844C132.905 26.9827 132.749 27.052 132.558 27.052ZM125.434 25.648C125.625 25.648 125.781 25.5873 125.902 25.466C127.67 23.958 129.239 21.8693 130.608 19.2C131.197 18.0907 131.561 17.3627 131.7 17.016C131.856 16.6693 131.934 16.3313 131.934 16.002C131.934 15.8287 131.891 15.6727 131.804 15.534C131.717 15.3953 131.605 15.326 131.466 15.326C131.293 15.326 131.067 15.404 130.79 15.56C130.097 15.924 129.273 16.6953 128.32 17.874C127.384 19.0527 126.613 20.3007 126.006 21.618C125.365 22.9527 125.044 24.14 125.044 25.18C125.044 25.492 125.174 25.648 125.434 25.648ZM136.984 37.842C136.429 37.842 135.935 37.6947 135.502 37.4C135.086 37.1053 134.765 36.7327 134.54 36.282C134.314 35.8487 134.202 35.4153 134.202 34.982C134.202 33.9247 134.488 32.98 135.06 32.148C135.476 31.5413 136.169 30.8913 137.14 30.198C138.024 29.5393 138.544 29.1753 138.7 29.106L140.962 27.442C141.014 27.1993 141.334 26.1247 141.924 24.218L142.262 23.152C142.383 22.7187 142.504 22.32 142.626 21.956C142.747 21.592 142.834 21.2887 142.886 21.046C142.14 23.2127 141.248 24.868 140.208 26.012C139.514 26.8093 138.838 27.208 138.18 27.208C137.521 27.208 136.984 26.948 136.568 26.428C136.169 25.8907 135.97 25.1627 135.97 24.244C135.97 22.788 136.386 20.4913 137.218 17.354C137.634 15.794 137.842 14.9533 137.842 14.832C137.824 14.7627 137.816 14.6847 137.816 14.598C137.816 14.4767 137.842 14.3813 137.894 14.312C138.136 13.9827 138.422 13.818 138.752 13.818C139.081 13.818 139.246 13.9913 139.246 14.338C139.246 14.6847 138.925 16.1407 138.284 18.706C137.642 21.2713 137.322 23.0133 137.322 23.932C137.322 24.8333 137.434 25.3967 137.66 25.622C137.868 25.8473 138.128 25.96 138.44 25.96C139.098 25.96 139.8 25.4053 140.546 24.296C141.135 23.4293 141.655 22.268 142.106 20.812C142.574 19.3387 143.007 17.7873 143.406 16.158L143.536 15.638C143.726 14.858 143.891 14.3727 144.03 14.182C144.168 13.974 144.376 13.87 144.654 13.87C144.931 13.87 145.07 13.974 145.07 14.182C145.07 14.4247 144.697 16.1927 143.952 19.486C143.224 22.554 142.704 24.842 142.392 26.35C142.738 26.0553 143.042 25.778 143.302 25.518C143.648 25.1713 143.9 24.9287 144.056 24.79C144.229 24.6513 144.385 24.582 144.524 24.582C144.853 24.582 145.018 24.7293 145.018 25.024C145.018 25.18 144.948 25.3533 144.81 25.544C143.874 26.376 142.972 27.1213 142.106 27.78C141.69 30.068 141.3 31.8793 140.936 33.214C140.572 34.566 140.069 35.6753 139.428 36.542C138.804 37.4087 137.989 37.842 136.984 37.842ZM137.01 36.594C138.067 36.594 138.968 35.372 139.714 32.928L140.312 30.64L140.65 28.95C139.974 29.47 139.315 29.9467 138.674 30.38C138.032 30.8133 137.504 31.2033 137.088 31.55C136.689 31.8967 136.325 32.3387 135.996 32.876C135.684 33.4133 135.528 34.0287 135.528 34.722C135.528 35.4327 135.762 35.9787 136.23 36.36C136.403 36.516 136.663 36.594 137.01 36.594ZM149.384 27.234C148.482 27.234 147.806 26.8787 147.356 26.168C146.922 25.4573 146.706 24.608 146.706 23.62C146.706 22.0427 146.966 20.5173 147.486 19.044C148.023 17.5533 148.751 16.3227 149.67 15.352C150.554 14.364 151.55 13.87 152.66 13.87C154.254 13.87 155.052 15.0833 155.052 17.51C155.052 18.7233 154.852 19.9627 154.454 21.228C154.055 22.4933 153.535 23.62 152.894 24.608C152.27 25.596 151.62 26.3067 150.944 26.74C150.424 27.0693 149.904 27.234 149.384 27.234ZM149.592 26.064C150.129 26.064 150.727 25.596 151.386 24.66C152.062 23.724 152.625 22.5627 153.076 21.176C153.544 19.7893 153.778 18.6107 153.778 17.64C153.778 16.6347 153.717 16.0107 153.596 15.768C153.492 15.508 153.362 15.326 153.206 15.222C153.05 15.118 152.807 15.066 152.478 15.066C152.114 15.066 151.732 15.2047 151.334 15.482C150.536 15.9847 149.843 16.8513 149.254 18.082C148.335 19.9193 147.876 21.7047 147.876 23.438C147.876 24.6167 148.214 25.4313 148.89 25.882C149.132 26.0033 149.366 26.064 149.592 26.064ZM165.136 27.182C164.737 27.182 164.538 26.8353 164.538 26.142V25.518C164.538 25.2927 164.529 25.1367 164.512 25.05C163.923 21.878 163.533 19.486 163.342 17.874C163.013 18.602 162.545 19.798 161.938 21.462C161.019 23.9753 160.317 25.7347 159.832 26.74C159.659 26.9653 159.459 27.078 159.234 27.078C158.87 27.078 158.688 26.7227 158.688 26.012C158.411 24.8333 158.099 22.9267 157.752 20.292C157.579 18.992 157.405 17.796 157.232 16.704C157.059 15.5947 156.946 14.9013 156.894 14.624C156.894 14.5027 156.963 14.364 157.102 14.208C157.241 14.052 157.388 13.974 157.544 13.974C157.908 13.974 158.151 14.2513 158.272 14.806C158.307 14.962 158.385 15.6033 158.506 16.73C158.749 18.8447 158.965 20.5953 159.156 21.982C159.364 23.3513 159.555 24.1573 159.728 24.4L160.534 22.216C162.007 18.3507 162.883 15.7333 163.16 14.364C163.229 14.0347 163.429 13.87 163.758 13.87C163.949 13.87 164.079 13.922 164.148 14.026C164.235 14.1127 164.295 14.26 164.33 14.468C164.729 18.5413 165.197 21.982 165.734 24.79C166.861 23.2473 167.771 21.8087 168.464 20.474C169.157 19.122 169.504 17.9347 169.504 16.912C169.504 16.1667 169.313 15.56 168.932 15.092C168.88 15.0227 168.698 14.8927 168.386 14.702C167.866 14.4593 167.606 14.2253 167.606 14C167.606 13.844 167.675 13.6967 167.814 13.558C167.97 13.4193 168.143 13.3413 168.334 13.324C169.045 13.3413 169.608 13.6967 170.024 14.39C170.44 15.066 170.648 15.9327 170.648 16.99C170.648 19.226 169.435 21.8693 167.008 24.92C166.852 25.18 166.757 25.3447 166.722 25.414C166.427 25.9513 166.159 26.3847 165.916 26.714C165.673 27.026 165.413 27.182 165.136 27.182ZM180.013 27.052C179.615 27.052 179.242 26.844 178.895 26.428C178.566 25.9947 178.401 25.5353 178.401 25.05C178.401 23.9753 178.687 22.1553 179.259 19.59C178.826 20.526 178.263 21.488 177.569 22.476C176.893 23.4467 176.226 24.3047 175.567 25.05C174.909 25.7953 174.423 26.2807 174.111 26.506C173.678 26.8353 173.201 27 172.681 27C171.693 27 171.199 26.376 171.199 25.128C171.199 23.9147 171.659 22.4067 172.577 20.604C173.496 18.784 174.588 17.2067 175.853 15.872C177.119 14.5547 178.141 13.896 178.921 13.896C179.719 13.896 180.169 14.2427 180.273 14.936C180.325 15.144 180.351 15.3693 180.351 15.612C180.438 15.56 180.533 15.534 180.637 15.534C181.036 15.534 181.235 15.7247 181.235 16.106V16.21L180.923 17.354C180.681 18.2207 180.429 19.5033 180.169 21.202C179.909 22.9007 179.779 24.3133 179.779 25.44L180.039 25.596C180.455 25.856 180.663 26.116 180.663 26.376C180.663 26.5493 180.603 26.7053 180.481 26.844C180.36 26.9827 180.204 27.052 180.013 27.052ZM172.889 25.648C173.08 25.648 173.236 25.5873 173.357 25.466C175.125 23.958 176.694 21.8693 178.063 19.2C178.653 18.0907 179.017 17.3627 179.155 17.016C179.311 16.6693 179.389 16.3313 179.389 16.002C179.389 15.8287 179.346 15.6727 179.259 15.534C179.173 15.3953 179.06 15.326 178.921 15.326C178.748 15.326 178.523 15.404 178.245 15.56C177.552 15.924 176.729 16.6953 175.775 17.874C174.839 19.0527 174.068 20.3007 173.461 21.618C172.82 22.9527 172.499 24.14 172.499 25.18C172.499 25.492 172.629 25.648 172.889 25.648Z" fill="#6A2C70"/>
</svg>
