<svg width="36" height="36" viewBox="0 0 36 36" fill="none" xmlns="http://www.w3.org/2000/svg">
<path fill-rule="evenodd" clip-rule="evenodd" d="M36 18C36 27.9411 27.9411 36 18 36C8.05887 36 0 27.9411 0 18C0 8.05887 8.05887 0 18 0C27.9411 0 36 8.05887 36 18ZM27.2667 10.007C27.1759 9.99766 27.0843 9.99766 26.9934 10.007H8.32672C8.20708 10.0089 8.08824 10.0268 7.97339 10.0604L17.6067 19.6537L27.2667 10.007ZM18.5467 20.6004L28.2533 10.9337C28.301 11.0643 28.328 11.2015 28.3333 11.3404V24.6737C28.3333 25.0273 28.1929 25.3665 27.9428 25.6165C27.6928 25.8666 27.3536 26.007 27 26.007H8.33333C7.97971 26.007 7.64057 25.8666 7.39052 25.6165C7.14048 25.3665 7 25.0273 7 24.6737V11.3404C7.00141 11.2277 7.01709 11.1157 7.04667 11.007L16.6667 20.6004C16.9165 20.8487 17.2544 20.9881 17.6067 20.9881C17.9589 20.9881 18.2969 20.8487 18.5467 20.6004ZM8.32 24.6737H9.24667L14.1067 19.8537L13.1667 18.9137L8.32 23.7204V24.6737ZM26.0533 24.6737H26.9867L26.98 23.7204L22.1333 18.9137L21.1933 19.8537L26.0533 24.6737Z" fill="white"/>
</svg>
