<svg width="25" height="25" viewBox="0 0 25 25" fill="none" xmlns="http://www.w3.org/2000/svg">
<path fill-rule="evenodd" clip-rule="evenodd" d="M25 12.5C25 19.4036 19.4036 25 12.5 25C5.59644 25 0 19.4036 0 12.5C0 5.59644 5.59644 0 12.5 0C19.4036 0 25 5.59644 25 12.5ZM18.9353 6.94932C18.8721 6.94282 18.8085 6.94282 18.7454 6.94932H5.78247C5.69939 6.9506 5.61686 6.96306 5.5371 6.98636L12.2269 13.6484L18.9353 6.94932ZM12.8797 14.3058L19.6204 7.59286C19.6535 7.68352 19.6723 7.77881 19.676 7.87527V17.1345C19.676 17.3801 19.5784 17.6156 19.4048 17.7893C19.2311 17.9629 18.9956 18.0605 18.75 18.0605H5.78706C5.54149 18.0605 5.30598 17.9629 5.13234 17.7893C4.95869 17.6156 4.86114 17.3801 4.86114 17.1345V7.87527C4.86212 7.79705 4.87301 7.71927 4.89355 7.64379L11.5741 14.3058C11.7476 14.4783 11.9823 14.5751 12.2269 14.5751C12.4715 14.5751 12.7062 14.4783 12.8797 14.3058ZM5.7778 17.1345H6.42132L9.79632 13.7873L9.14355 13.1345L5.7778 16.4725V17.1345ZM18.0926 17.1345H18.7408L18.7361 16.4725L15.3704 13.1345L14.7176 13.7873L18.0926 17.1345Z" fill="white"/>
</svg>
